<svg width="25" height="25" viewBox="0 0 25 25" fill="none" xmlns="http://www.w3.org/2000/svg">
<circle cx="12.5" cy="12.5" r="12.5" fill="#F29931" fill-opacity="0.2"/>
<path d="M5.9375 16.25C5.93831 16.6436 6.02224 17.0326 6.18379 17.3915C6.34535 17.7504 6.58089 18.0712 6.875 18.3327V19.5313C6.875 19.6556 6.92439 19.7748 7.01229 19.8627C7.1002 19.9506 7.21943 20 7.34375 20H8.28125C8.40557 20 8.5248 19.9506 8.61271 19.8627C8.70061 19.7748 8.75 19.6556 8.75 19.5313V19.0625H16.25V19.5313C16.25 19.6556 16.2994 19.7748 16.3873 19.8627C16.4752 19.9506 16.5944 20 16.7188 20H17.6562C17.7806 20 17.8998 19.9506 17.9877 19.8627C18.0756 19.7748 18.125 19.6556 18.125 19.5313V18.3327C18.4191 18.0712 18.6546 17.7504 18.8162 17.3915C18.9778 17.0326 19.0617 16.6436 19.0625 16.25V14.8438H5.9375V16.25ZM19.5312 12.5001H7.34375V7.02895C7.34402 6.90593 7.38071 6.78574 7.44921 6.68354C7.5177 6.58135 7.61493 6.50172 7.72862 6.45472C7.84231 6.40771 7.96738 6.39543 8.08805 6.41942C8.20871 6.4434 8.31957 6.50259 8.40664 6.58951L8.97119 7.15376C8.58652 8.02914 8.74824 8.88548 9.22373 9.48957L9.21875 9.49455C9.13118 9.58241 9.082 9.70141 9.082 9.82546C9.082 9.94951 9.13118 10.0685 9.21875 10.1564L9.5501 10.4877C9.59363 10.5312 9.64531 10.5658 9.70218 10.5893C9.75906 10.6129 9.82003 10.625 9.88159 10.625C9.94316 10.625 10.0041 10.6129 10.061 10.5893C10.1179 10.5658 10.1696 10.5312 10.2131 10.4877L13.3001 7.40073C13.3436 7.3572 13.3782 7.30552 13.4017 7.24864C13.4253 7.19176 13.4374 7.1308 13.4374 7.06924C13.4374 7.00767 13.4253 6.94671 13.4017 6.88983C13.3782 6.83295 13.3436 6.78127 13.3001 6.73775L12.9688 6.4064C12.8809 6.31856 12.7617 6.26922 12.6374 6.26922C12.5131 6.26922 12.394 6.31856 12.3061 6.4064L12.3011 6.41138C11.697 5.9359 10.8412 5.77418 9.96523 6.15885L9.40098 5.5943C9.11724 5.31054 8.75573 5.11729 8.36216 5.03899C7.96858 4.9607 7.56063 5.00087 7.18989 5.15444C6.81916 5.30801 6.50229 5.56807 6.27936 5.90173C6.05644 6.2354 5.93747 6.62767 5.9375 7.02895V12.5001H5.46875C5.34443 12.5001 5.2252 12.5495 5.13729 12.6374C5.04939 12.7253 5 12.8445 5 12.9688V13.4376C5 13.5619 5.04939 13.6811 5.13729 13.769C5.2252 13.8569 5.34443 13.9063 5.46875 13.9063H19.5312C19.6556 13.9063 19.7748 13.8569 19.8627 13.769C19.9506 13.6811 20 13.5619 20 13.4376V12.9688C20 12.8445 19.9506 12.7253 19.8627 12.6374C19.7748 12.5495 19.6556 12.5001 19.5312 12.5001Z" fill="#F29931"/>
</svg>
