<svg width="25" height="25" viewBox="0 0 25 25" fill="none" xmlns="http://www.w3.org/2000/svg">
<circle cx="12.5" cy="12.5" r="12.5" fill="#F29931" fill-opacity="0.2"/>
<path fill-rule="evenodd" clip-rule="evenodd" d="M6.24157 11.4545C4.90119 10.7516 5.05501 9.96816 6.40149 10.05L6.70301 10.6332L7.32437 8.63927C7.56852 7.85453 7.97503 7.14286 8.77218 7.14286H16.7192C17.5164 7.14286 17.9754 7.84068 18.1683 8.63801L18.6346 10.5715L18.9031 10.05C20.2875 9.9669 20.4108 10.797 18.9459 11.5137L19.1839 11.8903C20.1471 12.9119 20.0567 14.7181 19.9066 17.2411V18.2665C19.9066 18.5234 19.7027 18.7338 19.4537 18.7338H17.5213C17.2722 18.7338 17.0684 18.5234 17.0684 18.2665V17.6946H7.93474V18.2665C7.93474 18.5234 7.73088 18.7338 7.48185 18.7338H5.54941C5.30038 18.7338 5.09651 18.5234 5.09651 18.2665V16.993C5.09651 16.9678 5.09895 16.9439 5.1014 16.9199C4.95491 14.9839 4.7486 12.4521 6.24157 11.4545ZM8.7087 14.5368L6.99233 14.3138C6.58704 14.2672 6.4784 14.4435 6.61634 14.8038L6.80189 15.2686C6.86171 15.3882 6.94106 15.4752 7.03383 15.5356C7.14248 15.6049 7.2731 15.6389 7.41837 15.6452L8.94918 15.6578C9.31907 15.6565 9.47899 15.5041 9.36302 15.154C9.2678 14.8252 9.05051 14.6186 8.7087 14.5368ZM11.6385 13.7923H13.3964C13.5001 13.7923 13.5856 13.8805 13.5856 13.9876C13.5856 14.0946 13.5001 14.1828 13.3964 14.1828H11.6385C11.5347 14.1828 11.4493 14.0946 11.4493 13.9876C11.448 13.8805 11.5335 13.7923 11.6385 13.7923ZM15.9819 16.3569H17.7398C17.8435 16.3569 17.929 16.4451 17.929 16.5521C17.929 16.6592 17.8435 16.7474 17.7398 16.7474H15.9819C15.8781 16.7474 15.7927 16.6592 15.7927 16.5521C15.7927 16.4451 15.8769 16.3569 15.9819 16.3569ZM16.292 14.5368L18.0083 14.3138C18.4136 14.2672 18.5223 14.4435 18.3843 14.8038L18.1988 15.2686C18.139 15.3882 18.0596 15.4752 17.9668 15.5356C17.8582 15.6049 17.7276 15.6389 17.5823 15.6452L16.0515 15.6578C15.6816 15.6565 15.5217 15.5041 15.6376 15.154C15.7329 14.8252 15.9502 14.6186 16.292 14.5368ZM7.24747 16.3569H9.00534C9.1091 16.3569 9.19455 16.4451 9.19455 16.5521C9.19455 16.6592 9.1091 16.7474 9.00534 16.7474H7.24747C7.1437 16.7474 7.05825 16.6592 7.05825 16.5521C7.05825 16.4451 7.1437 16.3569 7.24747 16.3569ZM7.34757 11.0728H17.9461L17.4785 9.06754C17.3504 8.45663 16.9817 7.92759 16.3738 7.92759H9.03586C8.42915 7.92759 8.11786 8.47048 7.93108 9.06754L7.34757 11.0728Z" fill="#F29931"/>
</svg>
