<svg width="31" height="30" viewBox="0 0 31 30" fill="none" xmlns="http://www.w3.org/2000/svg">
<path fill-rule="evenodd" clip-rule="evenodd" d="M24.3392 23.8373C20.519 27.6579 14.8622 28.4834 10.233 26.3425C9.54963 26.0674 8.98936 25.845 8.45672 25.845C6.97311 25.8538 5.12646 27.2923 4.1667 26.3337C3.20694 25.3739 4.64658 23.5258 4.64658 22.0332C4.64658 21.5005 4.43302 20.9502 4.15791 20.2655C2.01604 15.637 2.84264 9.97836 6.66282 6.15901C11.5395 1.28054 19.4625 1.28054 24.3392 6.15775C29.2247 11.0438 29.2159 18.9601 24.3392 23.8373Z" stroke="#F29931" stroke-width="2" stroke-linecap="round" stroke-linejoin="round"/>
<path d="M20.4243 15.5162H20.4356" stroke="#F29931" stroke-width="3" stroke-linecap="round" stroke-linejoin="round"/>
<path d="M15.413 15.5162H15.4242" stroke="#F29931" stroke-width="3" stroke-linecap="round" stroke-linejoin="round"/>
<path d="M10.4017 15.5162H10.413" stroke="#F29931" stroke-width="3" stroke-linecap="round" stroke-linejoin="round"/>
</svg>
