<svg width="50" height="50" viewBox="0 0 50 50" fill="none" xmlns="http://www.w3.org/2000/svg">
<circle cx="25" cy="25" r="25" fill="#F29931"/>
<path fill-rule="evenodd" clip-rule="evenodd" d="M37.5738 19.287C37.5738 20.6674 37.3452 21.9973 36.9598 23.1295C36.9966 23.0195 35.4201 27.9209 29.2246 27.392C29.2246 27.392 23.9448 26.612 23.9448 22.0721V16.4198V14.4897V11.5134H26.6289V14.4897H28.3788V16.4198H26.6289V22.0721C26.6289 22.0721 26.2969 25.0875 30.3012 25.012C30.3012 25.012 32.6257 24.9547 33.837 23.1558C34.3693 21.9866 34.6693 20.6718 34.6693 19.287C34.6693 14.1051 30.4686 9.90443 25.2869 9.90443C20.1051 9.90443 15.9044 14.1051 15.9044 19.287C15.9044 20.8989 16.3109 22.4159 17.0265 23.7401C19.5151 29.1145 22.3256 32.6293 25.2981 37.0985C27.2882 34.1007 29.2017 31.5322 30.9958 28.5435H34.4352C31.6992 33.4766 27.7716 38.7952 25.2981 42C21.2681 36.7879 13 25.9389 13 19.287C13 12.5011 18.501 7 25.2869 7C32.0728 7 37.5738 12.5011 37.5738 19.287Z" fill="white"/>
</svg>
