<svg width="25" height="25" viewBox="0 0 25 25" fill="none" xmlns="http://www.w3.org/2000/svg">
<circle cx="12.5" cy="12.5" r="12.5" fill="#F29931" fill-opacity="0.2"/>
<path d="M6.50001 7.14286C6.0043 7.14286 5.60001 7.54715 5.60001 8.04286V12.1866C5.98907 11.8491 6.48126 11.5761 7.10001 11.3616V10.1429C7.10001 9.34481 8.4629 9.24286 9.65 9.24286C10.8371 9.24286 12.2 9.34481 12.2 10.1429V10.7429C12.3008 10.7417 12.3969 10.7429 12.5 10.7429C12.6031 10.7429 12.6992 10.7417 12.8 10.7429V10.1429C12.8 9.34481 14.1629 9.24286 15.35 9.24286C16.5371 9.24286 17.9 9.34481 17.9 10.1429V11.3522C18.5176 11.5655 19.0074 11.8444 19.4 12.1866V8.04286C19.4 7.54715 18.9957 7.14286 18.5 7.14286H6.50001ZM12.5 11.3429C6.77188 11.3429 4.99532 12.4022 5.00001 15.2429H20C20.0047 12.3835 18.2281 11.3429 12.5 11.3429ZM5.00001 15.8429V19.1429H7.10001V17.9429C7.10001 17.5116 7.26876 17.3429 7.70001 17.3429H17.3C17.7312 17.3429 17.9 17.5116 17.9 17.9429V19.1429H20V15.8429H5.00001Z" fill="#F29931"/>
</svg>
