<svg width="25" height="25" viewBox="0 0 25 25" fill="none" xmlns="http://www.w3.org/2000/svg">
<circle cx="12.5" cy="12.5" r="12.5" fill="#F29931" fill-opacity="0.2"/>
<path d="M7.41587 5.71429C6.482 5.71429 5.71436 6.4818 5.71436 7.4158C5.71436 8.23158 6.29965 8.92018 7.07014 9.08152V15.9185C6.29965 16.0798 5.71436 16.7686 5.71436 17.5843C5.71436 18.5183 6.48187 19.2857 7.41587 19.2857C8.23571 19.2857 8.91944 18.6927 9.07549 17.9164H15.9161C16.0723 18.6935 16.7639 19.2857 17.5844 19.2857C18.486 19.2857 19.2256 18.5688 19.2762 17.6788C19.2825 17.6477 19.2857 17.6161 19.2856 17.5843C19.2857 17.5526 19.2825 17.5209 19.2762 17.4898C19.232 16.712 18.6614 16.0665 17.9164 15.916V9.08396C18.6614 8.93347 19.232 8.28811 19.2763 7.51043C19.2826 7.47933 19.2858 7.44767 19.2858 7.41594C19.2858 7.3842 19.2826 7.35254 19.2763 7.32144C19.2255 6.4315 18.486 5.71429 17.5843 5.71429C16.7686 5.71429 16.0799 6.29958 15.9186 7.07007H9.07264C8.9113 6.30053 8.2307 5.71429 7.41587 5.71429ZM7.41587 6.66334C7.83711 6.66334 8.16833 6.99469 8.16833 7.4158C8.16833 7.83704 7.83711 8.16826 7.41587 8.16826C6.9949 8.16826 6.66341 7.83704 6.66341 7.4158C6.66341 6.99483 6.99476 6.66334 7.41587 6.66334ZM17.5843 6.66334C18.0055 6.66334 18.3367 6.99469 18.3367 7.4158C18.3367 7.83704 18.0055 8.16826 17.5843 8.16826C17.1632 8.16826 16.8318 7.83704 16.8318 7.4158C16.8318 6.99483 17.1632 6.66334 17.5843 6.66334ZM8.9978 8.01913H15.9964C16.0818 8.2406 16.2122 8.44198 16.3793 8.61057C16.5464 8.77916 16.7467 8.91131 16.9674 8.99868V16.0013C16.7489 16.0878 16.5505 16.2181 16.3844 16.3843C16.2182 16.5504 16.0879 16.7489 16.0014 16.9673H8.99197C8.90562 16.7471 8.77461 16.5471 8.6072 16.38C8.43978 16.2129 8.23958 16.0823 8.01919 15.9963V9.0037C8.24195 8.91692 8.44408 8.7845 8.6126 8.61493C8.78111 8.44537 8.91228 8.24242 8.99767 8.01913H8.9978ZM7.41587 16.8317C7.83698 16.8317 8.16819 17.1631 8.16819 17.5842C8.16819 18.0054 7.83698 18.3367 7.41573 18.3367C6.9949 18.3367 6.66341 18.0054 6.66341 17.5842C6.66341 17.1632 6.99476 16.8317 7.41587 16.8317ZM17.5843 16.8317C18.0054 16.8317 18.3366 17.1631 18.3366 17.5842C18.3366 18.0054 18.0054 18.3367 17.5841 18.3367C17.163 18.3367 16.8317 18.0054 16.8317 17.5842C16.8317 17.1631 17.1632 16.8317 17.5843 16.8317Z" fill="#F29931" stroke="#F29931"/>
</svg>
