<svg width="22" height="22" viewBox="0 0 22 22" fill="none" xmlns="http://www.w3.org/2000/svg">
<path d="M9.16675 13.75L9.16675 11" stroke="#F29931" stroke-width="2" stroke-linecap="round"/>
<path d="M12.8333 13.75L12.8333 11" stroke="#F29931" stroke-width="2" stroke-linecap="round"/>
<path d="M2.75 6.41675H19.25V6.41675C18.5522 6.41675 18.2033 6.41675 17.9194 6.50287C17.2802 6.69677 16.78 7.19698 16.5861 7.83618C16.5 8.12008 16.5 8.46897 16.5 9.16675V14.3334C16.5 16.219 16.5 17.1618 15.9142 17.7476C15.3284 18.3334 14.3856 18.3334 12.5 18.3334H9.5C7.61438 18.3334 6.67157 18.3334 6.08579 17.7476C5.5 17.1618 5.5 16.219 5.5 14.3334V9.16675C5.5 8.46897 5.5 8.12008 5.41388 7.83618C5.21998 7.19698 4.71977 6.69677 4.08057 6.50287C3.79667 6.41675 3.44778 6.41675 2.75 6.41675V6.41675Z" stroke="#F29931" stroke-width="2" stroke-linecap="round"/>
<path d="M9.22905 3.08971C9.33351 2.99225 9.56367 2.90613 9.88386 2.84471C10.204 2.78329 10.5963 2.75 10.9999 2.75C11.4035 2.75 11.7958 2.78329 12.116 2.84471C12.4362 2.90613 12.6663 2.99225 12.7708 3.08971" stroke="#F29931" stroke-width="2" stroke-linecap="round"/>
</svg>
